<mxfile host="app.diagrams.net" modified="2024-03-04T16:37:47.280Z" agent="Mozilla/5.0 (X11; Ubuntu; Linux x86_64; rv:123.0) Gecko/20100101 Firefox/123.0" etag="40yLtW3-cNyKQl3tUV3V" version="24.0.1" type="device">
  <diagram name="Seite-1" id="DV2gFybMHqL50xg0uv3c">
    <mxGraphModel dx="530" dy="279" grid="1" gridSize="10" guides="1" tooltips="1" connect="1" arrows="1" fold="1" page="1" pageScale="1" pageWidth="827" pageHeight="1169" math="0" shadow="0">
      <root>
        <mxCell id="0" />
        <mxCell id="1" parent="0" />
        <mxCell id="gaEJztT3Mrqc9i1CY80R-1" value="0" style="whiteSpace=wrap;html=1;aspect=fixed;fontStyle=1;fillColor=#deddda;" parent="1" vertex="1">
          <mxGeometry x="320" y="200" width="40" height="40" as="geometry" />
        </mxCell>
        <mxCell id="gaEJztT3Mrqc9i1CY80R-2" value="1" style="whiteSpace=wrap;html=1;aspect=fixed;fontStyle=1;fillColor=#deddda;" parent="1" vertex="1">
          <mxGeometry x="320" y="240" width="40" height="40" as="geometry" />
        </mxCell>
        <mxCell id="gaEJztT3Mrqc9i1CY80R-3" value="3" style="whiteSpace=wrap;html=1;aspect=fixed;fontStyle=1;fillColor=#deddda;" parent="1" vertex="1">
          <mxGeometry x="320" y="280" width="40" height="40" as="geometry" />
        </mxCell>
        <mxCell id="gaEJztT3Mrqc9i1CY80R-4" value="4" style="whiteSpace=wrap;html=1;aspect=fixed;fontStyle=1;fillColor=#deddda;" parent="1" vertex="1">
          <mxGeometry x="320" y="320" width="40" height="40" as="geometry" />
        </mxCell>
        <mxCell id="gaEJztT3Mrqc9i1CY80R-5" value="5" style="whiteSpace=wrap;html=1;aspect=fixed;fontStyle=1;fillColor=#deddda;" parent="1" vertex="1">
          <mxGeometry x="320" y="360" width="40" height="40" as="geometry" />
        </mxCell>
        <mxCell id="gaEJztT3Mrqc9i1CY80R-6" value="6" style="whiteSpace=wrap;html=1;aspect=fixed;fontStyle=1;fillColor=#deddda;" parent="1" vertex="1">
          <mxGeometry x="320" y="400" width="40" height="40" as="geometry" />
        </mxCell>
        <mxCell id="gaEJztT3Mrqc9i1CY80R-7" value="0" style="whiteSpace=wrap;html=1;aspect=fixed;fontStyle=1;fillColor=#deddda;" parent="1" vertex="1">
          <mxGeometry x="360" y="440" width="40" height="40" as="geometry" />
        </mxCell>
        <mxCell id="gaEJztT3Mrqc9i1CY80R-8" value="1" style="whiteSpace=wrap;html=1;aspect=fixed;fontStyle=1;fillColor=#deddda;" parent="1" vertex="1">
          <mxGeometry x="400" y="440" width="40" height="40" as="geometry" />
        </mxCell>
        <mxCell id="gaEJztT3Mrqc9i1CY80R-9" value="3" style="whiteSpace=wrap;html=1;aspect=fixed;fontStyle=1;fillColor=#deddda;" parent="1" vertex="1">
          <mxGeometry x="440" y="440" width="40" height="40" as="geometry" />
        </mxCell>
        <mxCell id="gaEJztT3Mrqc9i1CY80R-10" value="4" style="whiteSpace=wrap;html=1;aspect=fixed;fontStyle=1;fillColor=#deddda;" parent="1" vertex="1">
          <mxGeometry x="480" y="440" width="40" height="40" as="geometry" />
        </mxCell>
        <mxCell id="gaEJztT3Mrqc9i1CY80R-11" value="5" style="whiteSpace=wrap;html=1;aspect=fixed;fontStyle=1;fillColor=#deddda;" parent="1" vertex="1">
          <mxGeometry x="520" y="440" width="40" height="40" as="geometry" />
        </mxCell>
        <mxCell id="gaEJztT3Mrqc9i1CY80R-12" value="6" style="whiteSpace=wrap;html=1;aspect=fixed;fontStyle=1;fillColor=#deddda;" parent="1" vertex="1">
          <mxGeometry x="560" y="440" width="40" height="40" as="geometry" />
        </mxCell>
        <mxCell id="gaEJztT3Mrqc9i1CY80R-14" value="" style="whiteSpace=wrap;html=1;aspect=fixed;fillColor=#f66151;" parent="1" vertex="1">
          <mxGeometry x="400" y="400" width="40" height="40" as="geometry" />
        </mxCell>
        <mxCell id="gaEJztT3Mrqc9i1CY80R-15" value="X3" style="whiteSpace=wrap;html=1;aspect=fixed;fillColor=none;" parent="1" vertex="1">
          <mxGeometry x="440" y="400" width="40" height="40" as="geometry" />
        </mxCell>
        <mxCell id="gaEJztT3Mrqc9i1CY80R-16" value="X0" style="whiteSpace=wrap;html=1;aspect=fixed;fillColor=#8ff0a4;" parent="1" vertex="1">
          <mxGeometry x="480" y="400" width="40" height="40" as="geometry" />
        </mxCell>
        <mxCell id="gaEJztT3Mrqc9i1CY80R-17" value="" style="whiteSpace=wrap;html=1;aspect=fixed;fillColor=#f66151;" parent="1" vertex="1">
          <mxGeometry x="520" y="400" width="40" height="40" as="geometry" />
        </mxCell>
        <mxCell id="gaEJztT3Mrqc9i1CY80R-20" value="X2" style="whiteSpace=wrap;html=1;aspect=fixed;fillColor=none;" parent="1" vertex="1">
          <mxGeometry x="440" y="360" width="40" height="40" as="geometry" />
        </mxCell>
        <mxCell id="gaEJztT3Mrqc9i1CY80R-21" value="X0" style="whiteSpace=wrap;html=1;aspect=fixed;fillColor=#8ff0a4;" parent="1" vertex="1">
          <mxGeometry x="480" y="360" width="40" height="40" as="geometry" />
        </mxCell>
        <mxCell id="gaEJztT3Mrqc9i1CY80R-23" value="X0" style="whiteSpace=wrap;html=1;aspect=fixed;fillColor=#8ff0a4;" parent="1" vertex="1">
          <mxGeometry x="360" y="320" width="40" height="40" as="geometry" />
        </mxCell>
        <mxCell id="gaEJztT3Mrqc9i1CY80R-24" value="X0" style="whiteSpace=wrap;html=1;aspect=fixed;fillColor=#8ff0a4;" parent="1" vertex="1">
          <mxGeometry x="400" y="320" width="40" height="40" as="geometry" />
        </mxCell>
        <mxCell id="gaEJztT3Mrqc9i1CY80R-25" value="X0" style="whiteSpace=wrap;html=1;aspect=fixed;fillColor=#8ff0a4;" parent="1" vertex="1">
          <mxGeometry x="440" y="320" width="40" height="40" as="geometry" />
        </mxCell>
        <mxCell id="gaEJztT3Mrqc9i1CY80R-28" value="X1" style="whiteSpace=wrap;html=1;aspect=fixed;fillColor=none;" parent="1" vertex="1">
          <mxGeometry x="360" y="280" width="40" height="40" as="geometry" />
        </mxCell>
        <mxCell id="gaEJztT3Mrqc9i1CY80R-29" value="X4" style="whiteSpace=wrap;html=1;aspect=fixed;fillColor=none;" parent="1" vertex="1">
          <mxGeometry x="400" y="280" width="40" height="40" as="geometry" />
        </mxCell>
        <mxCell id="gaEJztT3Mrqc9i1CY80R-40" value="" style="whiteSpace=wrap;html=1;aspect=fixed;fillColor=#f66151;" parent="1" vertex="1">
          <mxGeometry x="400" y="360" width="40" height="40" as="geometry" />
        </mxCell>
        <mxCell id="Yuw29JBI0Z46UQAlAM8M-1" value="X5" style="whiteSpace=wrap;html=1;aspect=fixed;fillColor=none;" vertex="1" parent="1">
          <mxGeometry x="360" y="240" width="40" height="40" as="geometry" />
        </mxCell>
        <mxCell id="Yuw29JBI0Z46UQAlAM8M-2" value="X6" style="whiteSpace=wrap;html=1;aspect=fixed;fillColor=none;" vertex="1" parent="1">
          <mxGeometry x="360" y="360" width="40" height="40" as="geometry" />
        </mxCell>
        <mxCell id="Yuw29JBI0Z46UQAlAM8M-3" value="X7" style="whiteSpace=wrap;html=1;aspect=fixed;fillColor=none;" vertex="1" parent="1">
          <mxGeometry x="360" y="400" width="40" height="40" as="geometry" />
        </mxCell>
      </root>
    </mxGraphModel>
  </diagram>
</mxfile>
